Coordinates
version=1
nRows=24
nColumns=24
inDegrees=yes

Units are S.I. units (second, meters, Newtons, ...)
If the header above contains a line with 'inDegrees', this indicates whether rotational values are in degrees (yes) or radians (no).

endheader
time	pelvis_tilt	pelvis_list	pelvis_rotation	pelvis_tx	pelvis_ty	pelvis_tz	hip_flexion_r	hip_adduction_r	hip_rotation_r	knee_angle_r	ankle_angle_r	subtalar_angle_r	mtp_angle_r	hip_flexion_l	hip_adduction_l	hip_rotation_l	knee_angle_l	ankle_angle_l	subtalar_angle_l	mtp_angle_l	lumbar_extension	lumbar_bending	lumbar_rotation
      0.00000000	     43.41635542	      2.28302078	     -1.89269345	      0.02573973	      0.55085519	     -0.03279689	     49.27469698	     -4.10445000	      5.45255001	   -108.68940765	     17.20488222	      0.00000000	      0.00000000	     49.00386797	     -2.71723487	     -5.09027585	   -109.14378972	     14.73942932	      0.00000000	      0.00000000	    -57.65153082	     -4.33237916	     -5.34022724
      0.01000000	     43.41635542	      2.28302078	     -1.89269345	      0.02573973	      0.55085519	     -0.03279689	     49.27469698	     -4.10445000	      5.45255001	   -108.68940765	     17.20488222	      0.00000000	      0.00000000	     49.00386797	     -2.71723487	     -5.09027585	   -109.14378972	     14.73942932	      0.00000000	      0.00000000	    -57.65153082	     -4.33237916	     -5.34022724
      0.02000000	     43.41650911	      2.28282267	     -1.89289315	      0.02573335	      0.55085861	     -0.03277264	     49.27489216	     -4.10463855	      5.45262467	   -108.68935442	     17.20490674	      0.00000000	      0.00000000	     49.00383236	     -2.71712901	     -5.09025185	   -109.14379435	     14.73942798	      0.00000000	      0.00000000	    -57.65154624	     -4.33231696	     -5.34021799
      0.03000000	     43.41669856	      2.28299525	     -1.89327919	      0.02572984	      0.55085999	     -0.03275802	     49.27507502	     -4.10474134	      5.45254878	   -108.68929319	     17.20492344	      0.00000000	      0.00000000	     49.00380811	     -2.71709632	     -5.09007182	   -109.14375542	     14.73942995	      0.00000000	      0.00000000	    -57.65158342	     -4.33223020	     -5.34020870
      0.04000000	     43.41689300	      2.28320427	     -1.89384644	      0.02572651	      0.55086143	     -0.03273926	     49.27525358	     -4.10487095	      5.45241990	   -108.68924248	     17.20493625	      0.00000000	      0.00000000	     49.00378187	     -2.71702008	     -5.08983152	   -109.14369733	     14.73943179	      0.00000000	      0.00000000	    -57.65164009	     -4.33211226	     -5.34019953
      0.05000000	     43.41976209	      2.28820618	     -1.91633309	      0.02570854	      0.55086190	     -0.03267020	     49.28288529	     -4.10677943	      5.44778524	   -108.69036676	     17.20518243	      0.00000000	      0.00000000	     48.99613621	     -2.71322706	     -5.08183793	   -109.13917785	     14.73893881	      0.00000000	      0.00000000	    -57.65598324	     -4.32723900	     -5.33955906
      0.06000000	     43.41976209	      2.28820618	     -1.91633309	      0.02570854	      0.55086190	     -0.03267020	     49.28288529	     -4.10677943	      5.44778524	   -108.69036676	     17.20518243	      0.00000000	      0.00000000	     48.99613621	     -2.71322706	     -5.08183793	   -109.13917785	     14.73893881	      0.00000000	      0.00000000	    -57.65598324	     -4.32723900	     -5.33955906
      0.07000000	     43.41981001	      2.28800573	     -1.91663136	      0.02571010	      0.55086557	     -0.03264619	     49.28291430	     -4.10686955	      5.44783554	   -108.69039955	     17.20516435	      0.00000000	      0.00000000	     48.99608072	     -2.71304356	     -5.08184890	   -109.13909825	     14.73895109	      0.00000000	      0.00000000	    -57.65608594	     -4.32711404	     -5.33954351
      0.08000000	     43.41979035	      2.28829830	     -1.91704175	      0.02571000	      0.55086848	     -0.03263545	     49.28290034	     -4.10682057	      5.44773518	   -108.69045994	     17.20513878	      0.00000000	      0.00000000	     48.99598044	     -2.71298910	     -5.08169221	   -109.13902147	     14.73896697	      0.00000000	      0.00000000	    -57.65619741	     -4.32695788	     -5.33952618
      0.09000000	     43.41976484	      2.28869318	     -1.91751665	      0.02571050	      0.55087199	     -0.03262236	     49.28287926	     -4.10675456	      5.44760771	   -108.69052817	     17.20511101	      0.00000000	      0.00000000	     48.99586687	     -2.71294154	     -5.08149364	   -109.13893353	     14.73898395	      0.00000000	      0.00000000	    -57.65631641	     -4.32676678	     -5.33950658
      0.10000000	     43.42075797	      2.29598748	     -1.93088009	      0.02571183	      0.55089813	     -0.03254151	     49.28557350	     -4.10358307	      5.44721582	   -108.69318350	     17.20442318	      0.00000000	      0.00000000	     48.98772229	     -2.71149250	     -5.07711518	   -109.13306590	     14.73945118	      0.00000000	      0.00000000	    -57.66171143	     -4.31897077	     -5.33849115
      0.11000000	     43.42075797	      2.29598748	     -1.93088009	      0.02571183	      0.55089813	     -0.03254151	     49.28557350	     -4.10358307	      5.44721582	   -108.69318350	     17.20442318	      0.00000000	      0.00000000	     48.98772229	     -2.71149250	     -5.07711518	   -109.13306590	     14.73945118	      0.00000000	      0.00000000	    -57.66171143	     -4.31897077	     -5.33849115
      0.12000000	     43.42075797	      2.29598748	     -1.93088009	      0.02571183	      0.55089813	     -0.03254151	     49.28557350	     -4.10358307	      5.44721582	   -108.69318350	     17.20442318	      0.00000000	      0.00000000	     48.98772229	     -2.71149250	     -5.07711518	   -109.13306590	     14.73945118	      0.00000000	      0.00000000	    -57.66171143	     -4.31897077	     -5.33849115
      0.13000000	     43.42075797	      2.29598748	     -1.93088009	      0.02571183	      0.55089813	     -0.03254151	     49.28557350	     -4.10358307	      5.44721582	   -108.69318350	     17.20442318	      0.00000000	      0.00000000	     48.98772229	     -2.71149250	     -5.07711518	   -109.13306590	     14.73945118	      0.00000000	      0.00000000	    -57.66171143	     -4.31897077	     -5.33849115
      0.14000000	     43.42497321	      2.30863781	     -1.92983461	      0.02569760	      0.55093478	     -0.03247169	     49.27930936	     -4.09262537	      5.46631039	   -108.69954771	     17.20149746	      0.00000000	      0.00000000	     48.97349891	     -2.72258638	     -5.09414558	   -109.11717271	     14.74166239	      0.00000000	      0.00000000	    -57.67860331	     -4.28915462	     -5.33318137
      0.15000000	     43.42517271	      2.30885304	     -1.92999271	      0.02571131	      0.55093362	     -0.03246462	     49.27931051	     -4.09265079	      5.46636255	   -108.69933757	     17.20147783	      0.00000000	      0.00000000	     48.97345091	     -2.72264913	     -5.09417942	   -109.11722419	     14.74167553	      0.00000000	      0.00000000	    -57.67871353	     -4.28898191	     -5.33313844
      0.16000000	     43.42517386	      2.30942879	     -1.93006498	      0.02571623	      0.55093693	     -0.03246405	     49.27922669	     -4.09262025	      5.46639414	   -108.69921658	     17.20145374	      0.00000000	      0.00000000	     48.97333546	     -2.72292386	     -5.09415609	   -109.11736068	     14.74169139	      0.00000000	      0.00000000	    -57.67882067	     -4.28876359	     -5.33308894
      0.17000000	     43.42511976	      2.31012607	     -1.93004419	      0.02572556	      0.55094214	     -0.03246151	     49.27910273	     -4.09260116	      5.46646418	   -108.69911102	     17.20142679	      0.00000000	      0.00000000	     48.97320410	     -2.72332923	     -5.09415586	   -109.11750599	     14.74170753	      0.00000000	      0.00000000	    -57.67892373	     -4.28849553	     -5.33303174
      0.18000000	     43.42124584	      2.31783505	     -1.92907562	      0.02577767	      0.55097498	     -0.03240094	     49.27610315	     -4.09310908	      5.46794540	   -108.69892028	     17.20103695	      0.00000000	      0.00000000	     48.97044514	     -2.72889367	     -5.09493013	   -109.11981767	     14.74179197	      0.00000000	      0.00000000	    -57.67989284	     -4.28493633	     -5.33229904
      0.19000000	     43.42145484	      2.31806377	     -1.92892403	      0.02578722	      0.55098574	     -0.03240500	     49.27604057	     -4.09314386	      5.46813445	   -108.69891182	     17.20103781	      0.00000000	      0.00000000	     48.97046867	     -2.72926406	     -5.09526422	   -109.11979965	     14.74181639	      0.00000000	      0.00000000	    -57.67993074	     -4.28462044	     -5.33222888
      0.20000000	     43.42136848	      2.31837246	     -1.92873868	      0.02580556	      0.55099205	     -0.03240843	     49.27581169	     -4.09322973	      5.46835083	   -108.69893917	     17.20101978	      0.00000000	      0.00000000	     48.97034667	     -2.72974454	     -5.09562794	   -109.11982678	     14.74182599	      0.00000000	      0.00000000	    -57.67993740	     -4.28425307	     -5.33214787
      0.21000000	     43.43719607	      2.33989240	     -1.94498027	      0.02586413	      0.55106479	     -0.03241412	     49.25353501	     -4.11129885	      5.49694377	   -108.70170276	     17.20395898	      0.00000000	      0.00000000	     48.93827773	     -2.77673821	     -5.18106148	   -109.12200358	     14.74238713	      0.00000000	      0.00000000	    -57.66550423	     -4.20295435	     -5.31067059
      0.22000000	     43.43734777	      2.34015987	     -1.94504271	      0.02589568	      0.55107386	     -0.03242660	     49.25348207	     -4.11105254	      5.49692268	   -108.70170971	     17.20395122	      0.00000000	      0.00000000	     48.93819853	     -2.77668218	     -5.18109763	   -109.12189805	     14.74237583	      0.00000000	      0.00000000	    -57.66547735	     -4.20286494	     -5.31055685
      0.23000000	     43.43424466	      2.33988812	     -1.94560349	      0.02594884	      0.55109952	     -0.03243524	     49.25140793	     -4.11099124	      5.49753344	   -108.70289078	     17.20375070	      0.00000000	      0.00000000	     48.93586021	     -2.77620897	     -5.18188651	   -109.12260109	     14.74215769	      0.00000000	      0.00000000	    -57.66485540	     -4.20210259	     -5.30981351
